<svg height="512" viewBox="0 0 57 56" width="512" xmlns="http://www.w3.org/2000/svg"><g id="024---Super-Girl"><circle id="Oval" cx="38" cy="32" r="1"/><path id="Shape" d="m30.63 45.5c-.94-.43-1.48-.63-2-.41-.1889179.1411391-.4146916.2245017-.65.24-.86 0-.44-.84-2.63.17-1.1068212.5353529-2.3115955.8382481-3.54.89 2.51 3.61 1.87 4.61 6.19 4.61s3.69-1 6.15-4.61c-1.2222326-.050208-2.4207849-.3532511-3.52-.89z"/><circle id="Oval" cx="18" cy="32" r="1"/><path id="Shape" d="m18 35c-1.344295-.0078535-2.5192464-.9090217-2.8753224-2.2053244-.3560759-1.2963026.1936671-2.6712199 1.3453224-3.3646756-.8332584-.1973471-1.6783309-.340976-2.53-.43-1.2471429 1.6957029-1.2987216 3.9908868-.129013 5.7409027 1.1697087 1.7500158 3.3101732 2.5800404 5.353906 2.0761257 2.0437329-.5039146 3.5530015-2.2338387 3.775107-4.3270284-.6544378-.5190467-1.3500717-.9839175-2.08-1.39.2864973.9110026.1221441 1.9039826-.4426024 2.6740915-.5647466.770109-1.4624075 1.22533-2.4173976 1.2259085z"/><path id="Shape" d="m5.69 39.17c.29187981-2.8893139.29187981-5.8006861 0-8.69l-1.37.15c-.55857939.0571305-1.06741635.3464346-1.40217829.797222s-.46461198 1.0215334-.35782171 1.572778l.83 4.59c.2119454 1.0628439 1.23187612 1.7634919 2.3 1.58z"/><path id="Shape" d="m9 50.82c-3.1-2.2-3.5-6-3.38-9.63-.78417562.0516111-1.56548096-.1367393-2.24-.54-.89834808 1.4585192-1.37594289 3.1370227-1.38 4.85-.01082296 3.1505881 1.54593153 6.1002531 4.15311536 7.869127 2.60718383 1.768874 5.92335164 2.1252994 8.84688464.950873-2.086336-1.0119371-4.0921899-2.1820186-6-3.5z"/><path id="Shape" d="m52.6 37.56.84-4.56c.1005538-.5466711-.0309298-1.1105303-.3629154-1.5563396-.3319856-.4458092-.8345241-.7333511-1.3870846-.7936604l-1.37-.15c-.2912067 2.886006-.2912067 5.793994 0 8.68 1.0740079.1695413 2.086711-.550011 2.28-1.62z"/><path id="Shape" d="m45.88 49.18c3.84-2.72 2.22-9.4 2.22-14 .0791205-3.6481997.3796734-7.2882302.9-10.9-6.61-8.48-35.71-8.34-42 0 0 .18.34 2.14.62 5.57.31935635 2.8829644.35285265 5.7904433.1 8.68-.26 3.77-.65 8.47 2.4 10.65 4.63 3.26 12.25 6.82 17.88 6.82s13.24-3.55 17.88-6.82zm-15.17-10.89c.2884599.2860905.3751619.7182668.219371 1.0934815-.155791.3752147-.5231059.6188811-.929371.6165185-.265803.0015368-.5212812-.1028135-.71-.29-.3351631-.3784645-.7909407-.6293188-1.29-.71-.5029199.0776811-.9628175.328856-1.3.71-.1862606.1847442-.4376601.2888954-.7.29-.4062651.0023626-.77358-.2413038-.929371-.6165185-.1557909-.3752147-.0690889-.807391.219371-1.0934815.7047838-.761204 1.6747923-1.2229423 2.71-1.29 1.0352077.0670577 2.0052162.528796 2.71 1.29zm-19.06-9.29h-.53c-.3572656.0428719-.7102645-.1081118-.9260254-.3960769-.21576096-.2879652-.26150471-.669163-.12-1.0000001.1415046-.330837.4487598-.5610511.8060254-.603923.977667-.0956311 1.962333-.0956311 2.94 0-.2965914-.5373755-.5539294-1.0954981-.77-1.67-.1767311-.5246705.1053295-1.0932688.63-1.27.5246705-.1767311 1.0932689.1053295 1.27.63.3559265.9896083.8915785 1.9049628 1.58 2.7.41.09.84.19 1.27.32-.099522-.7422947.0113515-1.4976202.32-2.18.1268369-.2338677.3416385-.4075519.596876-.4826217.2552375-.0750699.5298679-.0453363.763124.0826217.4791057.2602138.6614751.8562503.41 1.34-.2056163.6634028-.144636 1.3808187.17 2 2.1114212.8847403 4.0304395 2.172011 5.65 3.79.3103999.3269765.3636202.8212234.1299461 1.2067855-.233674.3855622-.6964508.5670836-1.1299461.4432145-.7019289 2.5764395-2.8085514 4.5290778-5.4307642 5.0338007-2.6222127.5047229-5.3031502-.5264069-6.9113185-2.6581995-1.6081684-2.1317925-1.863378-4.9928278-.6579173-7.3756012zm25 17.28c-.7213155.9624689-1.3889962 1.96399-2 3-1.52 2.82-2.65 3.65-6.6 3.72s-5.18-.94-6.74-3.74c-.5995184-1.0319213-1.2503333-2.033175-1.95-3-.3418756-.2649896-.4746253-.7197466-.3289992-1.1270444.145626-.4072978.5366126-.6747972.9689992-.6629556 1.3531229.0536057 2.7055584-.1222109 4-.52 1-.4 2.5-1.38 4.07-.75 1.57-.62 3 .35 4.08.75 1.2940278.3996921 2.6467905.5755513 4 .52.3956764.0483129.7248697.3270029.8378157.7092817.112946.3822789-.0119297.7951256-.3178157 1.0507183zm-5.33-12.34c-.4334953.1238691-.8962721-.0576523-1.1299461-.4432145-.2336741-.3855621-.1804538-.879809.1299461-1.2067855 1.6195605-1.617989 3.5385788-2.9052597 5.65-3.79.3188418-.6179764.3799652-1.337075.17-2-.2469243-.4916536-.050313-1.0904244.44-1.34.4787225-.24648 1.0666572-.0696575 1.33.4.3086485.6823798.419522 1.4377053.32 2.18.43-.13.86-.23 1.27-.32.6884215-.7950372 1.2240735-1.7103917 1.58-2.7.1767311-.5246705.7453295-.806731 1.27-.6299999s.8067311.7453294.63 1.2699999c-.2270933.5650995-.4944466 1.1131738-.8 1.64.977667-.0956311 1.962333-.0956311 2.94 0 .2660282.029982.5089266.1653802.6743251.3758874s.2394846.4785437.2056749.7441126c-.0677005.5459565-.5636794.9346967-1.11.87h-.53c1.2054607 2.3827734.9502511 5.2438087-.6579173 7.3756012-1.6081683 2.1317926-4.2891058 3.1629224-6.9113185 2.6581995-2.6222128-.5047229-4.7288353-2.4573612-5.4307642-5.0338007z"/><path id="Shape" d="m42.06 29c-.8512319.0824338-1.6963.2193816-2.53.41 1.3535616.7937195 1.8668218 2.496415 1.1774139 3.9059669-.6894079 1.4095518-2.3485595 2.0497267-3.8060776 1.468555s-2.2209635-2.1873346-1.7513363-3.6845219c-.7299283.4060825-1.4255622.8709533-2.08 1.39.2221055 2.0931897 1.7313741 3.8231138 3.775107 4.3270284 2.0437328.5039147 4.1841973-.3261099 5.353906-2.0761257 1.1697086-1.7500159 1.1181299-4.0451998-.129013-5.7409027z"/><path id="Shape" d="m48.87 21.36c-1.2-9.13-10.74-11.19-19.79-10.14h-2.16c-9.09-1.05-18.61 1-19.79 10.14 2.72-2.22 8.73-5.36 20.87-5.36s18.14 3.14 20.87 5.36z"/><path id="Shape" d="m50.42 41.19c.12 3.62-.29 7.43-3.39 9.62-1.9010437 1.3314942-3.9077225 2.5054013-6 3.51 8.48 3.33 16.19-6 11.62-13.67-.6706838.4036578-1.4489493.5921167-2.23.54z"/><path id="Shape" d="m28 0c-17.29 0-28 4.1-28 24.5.01438377 2.1514519.35146885 4.2885713 1 6.34.60482282-1.213226 1.78297072-2.0375531 3.13-2.19l1.41-.16c-.35-3.11-.54-4.22-.54-4.64-.28-12.19 10.26-16 22.07-14.62h1.82c11.99-1.36 22.54 2.61 22.11 14.77 0 .57-.25 2.12-.48 4.46 1.5.16 3 .15 4.19 1.76.1333468.1862811.2504439.3836735.35.59.6485311-2.0514287.9856162-4.1885481 1-6.34-.06-20.37-10.77-24.47-28.06-24.47z"/></g></svg>