<svg height="512" viewBox="0 0 60 60" width="512" xmlns="http://www.w3.org/2000/svg"><g id="024---Super-Girl" fill="none"><g id="Icons" transform="translate(1)"><path id="Shape" d="m51 26c-.8346556-1.1548644-1.9048986-2.1194464-3.14-2.83-3.06-1.96-8.75-4.17-18.86-4.17-1.17 0-1.22 0-1.6 0-16.1.21-20.15 6.58-20.4 7-.27-9.42 6.17-13.55 15.47-14 1.855716-.0774614 3.7146457-.0105934 5.56.2h1.97c11.32-1.2 21.38 2.26 21 13.8z" fill="#ef314c"/><path id="Shape" d="m32.72 12c7.85.35 14.13 3.63 15.13 11.13 1.2427144.7210013 2.3167597 1.6995759 3.15 2.87.35-10.6-8.11-14.42-18.28-14z" fill="#bb193b"/><path id="Shape" d="m50.3 32.73c-.2791301 3.0846987-.2590364 6.1891729.06 9.27.24 3.83.16 7.88-2.9 10-4.75 3.34-12.55 7-18.46 7s-13.7-3.65-18.46-7c-3.06-2.16-3.14-6.21-2.9-10 .31645533-3.0675957.3365482-6.1585495.06-9.23-.34-4.63-.7-5.98-.7-6.77.25-.41 4.55-7 22-7 8.14 0 13.43 1.43 16.76 3 3.81 1.79 5.1 3.76 5.23 4 .01 1-.32 1.76-.69 6.73z" fill="#dfc49c"/><path id="Shape" d="m47.3 31.42c-.2766124 3.2250288-.2565281 6.4686439.06 9.69.24 4 .16 8.27-2.9 10.54-4.46 3.35-11.37 6.73-16.92 7.27-5.49-.47-12.48-3.74-17-6.92s-2.64-10-2.64-14.77c-.08014846-3.6415066-.38069831-7.2748204-.9-10.88 0-.12 0-.25 0-.37.25-.41 4.55-7 22-7 8.14 0 13.43 1.43 16.76 3 .8820705.6420726 1.6409181 1.4381851 2.24 2.35 0 .93-.38 2.45-.7 7.09z" fill="#ffe0b2"/><path id="Shape" d="m55.42 35.16-.5 2.78c-.32 1.77-.31 2.43-1 3.24-.7646509.8661358-1.9587379 1.2161939-3.07.9l-.49-.08c-.3164553-3.0675957-.3365482-6.1585495-.06-9.23 0-.1.08-1.07.11-1.35l2.39.26c.8185994.0928722 1.5629821.5183008 2.0585021 1.1764725.4955201.6581717.6985655 1.491159.5614979 2.3035275z" fill="#ffe0b2"/><path id="Shape" d="m55.42 35.16c.1492982-.8184721-.0479977-1.6621888-.544754-2.3295865s-1.2483573-1.0985351-2.075246-1.1904135l-2.39-.26c.25-2.8.57-5 .57-5 .0859313-1.4681844-.0250543-2.9412653-.33-4.38-2.4-11.1-16.79-10.22-20.65-9.77h-2c-3.86-.45-18.25-1.33-20.65 9.77-.31028685 1.4278808-.42799926 2.8908778-.35 4.35 0 0 .32 2.23.57 5l-2.39.26c-.82688867.0918784-1.57848972.5230158-2.07524599 1.1904135s-.69405224 1.5111144-.54475401 2.3295865l.5 2.78c-1.99945351-3.4706239-3.05449724-7.4046268-3.06-11.41 0-22.5 13-25.5 29-25.5s29 3 29 25.5c-.0063356 4.0173618-1.0684865 7.9624938-3.08 11.44z" fill="#673ab7"/><path id="Shape" d="m55.42 35.16c.2136107-1.118918-.2383597-2.2605329-1.16-2.93.4948781-1.8696768.7436453-3.7959415.74-5.73 0-21.79-12.17-25.29-27.49-25.5 19.94-.4 30.49 4.78 30.49 25.5-.0063356 4.0173618-1.0684865 7.9624938-3.08 11.44z" fill="#4527a0"/><path id="Shape" d="m7.64 42-.46.13c-.81388366.2307546-1.68736459.1071569-2.40527463-.3403467s-1.21351314-1.1773137-1.36472537-2.0096533l-.32-1.78-.5-2.78c-.16805789-.8259234.01907111-1.6844455.515602-2.3655108.4965309-.6810654 1.25665713-1.1218436 2.094398-1.2144892l2.39-.26c.39107755 3.5283346.40783746 7.0881394.05 10.62z" fill="#ffe0b2"/><path id="Shape" d="m18.24 56.29c-3.2282363 2.0994965-7.3461789 2.2653719-10.73282227.4323303-3.38664342-1.8330416-5.49962368-5.3714423-5.50717773-9.2223303-.00734163-2.2777562.73401954-4.4948126 2.11-6.31.76465085.8661358 1.95873785 1.2161939 3.07.9l.46-.09c-.24 3.83-.16 7.88 2.9 10 2.4226735 1.6743908 5.0012945 3.1110511 7.7 4.29z" fill="#673ab7"/><path id="Shape" d="m56 47.5c-.0075541 3.850888-2.1205343 7.3892887-5.5071777 9.2223303s-7.504586 1.6671662-10.7328223-.4323303c2.6987055-1.1789489 5.2773265-2.6156092 7.7-4.29 3.06-2.16 3.14-6.21 2.9-10 .3803827.1462306.7826737.2273649 1.19.24.889739.0303787 1.7470135-.3359779 2.34-1 1.3598009 1.8046332 2.0999177 4.0004297 2.11 6.26z" fill="#4527a0"/><path id="Shape" d="m44 57.89c-1.5212787-.2100462-2.9765856-.7566403-4.26-1.6 2.7056076-1.1777974 5.2909742-2.6144843 7.72-4.29 3.06-2.16 3.14-6.21 2.9-10 .3787405.1518035.7820274.2331386 1.19.24 1.7494317 3.0104119 1.8911499 6.6926878.3782712 9.8286548-1.5128786 3.135967-4.4831816 5.3169165-7.9282712 5.8213452z" fill="#673ab7"/><path id="Shape" d="m37 47.47c-.08 0-.42.6-.46.66-.36.52-.72 1-1.07 1.57-.5248492.9697666-1.1162656 1.9019993-1.77 2.79-1.25 1.43-2.9 1.51-4.7 1.51s-3.51-.13-4.72-1.51c-.6537344-.8880007-1.2451508-1.8202334-1.77-2.79-.35-.53-.71-1.05-1.07-1.57-.05-.06-.38-.66-.46-.66 1.4526746.054006 2.9038186-.1421859 4.29-.58 1.17-.46 2.46-1.38 3.72-.57 1.25-.8 2.55.11 3.7.57 1.3928073.4389227 2.8507099.6351138 4.31.58z" fill="#f44335"/><path id="Shape" d="m25 34.11c-.0735247 2.6433446-1.8689198 4.9268974-4.4202642 5.6221086-2.5513443.6952112-5.2570182-.3618534-6.6613711-2.6024939s-1.1762314-5.1365026.5616353-7.1296147c3.8567953.2058739 7.5450934 1.6468344 10.52 4.11z" fill="#f5f5f5"/><circle id="Oval" cx="19" cy="33.87" fill="#3f51b5" r="2.13"/><path id="Shape" d="m33 34.11c.0735247 2.6433446 1.8689198 4.9268974 4.4202642 5.6221086 2.5513443.6952112 5.2570182-.3618534 6.6613711-2.6024939s1.1762314-5.1365026-.5616353-7.1296147c-3.8567953.2058739-7.5450934 1.6468344-10.52 4.11z" fill="#f5f5f5"/><circle id="Oval" cx="39" cy="33.87" fill="#3f51b5" r="2.13"/></g><g id="Layer_10" fill="#000"><path id="Shape" d="m38.05 46.47c-1.3531229.0536057-2.7055584-.1222109-4-.52-1-.39-2.47-1.38-4.05-.75-1.6-.64-3.13.37-4.1.75-1.2941943.398927-2.6468252.574769-4 .52-.4132475.0121616-.7764066.277369-.9137714.6673078s-.0206116.8242062.2937714 1.0926922c.07.11.24.4.29.47.6044914.8190497 1.1588389 1.6739471 1.66 2.56 1.59 2.74 2.77 3.74 6.77 3.74 1.61 0 3.81 0 5.44-1.85.4838142-.5829236.9029348-1.216634 1.25-1.89.5020052-.8855409 1.0563205-1.7403886 1.66-2.56 0-.07.21-.36.29-.47.3111956-.2647304.4300501-.6921465.3001906-1.0795241s-.4823128-.6567985-.8901906-.6804759zm-8.05 6.53c-4.31 0-3.8-1.12-6.17-4.61.9598624-.048713 1.907025-.2408421 2.81-.57 1.16-.46 2.09-1.13 2.83-.65.3314032.2154186.7585968.2154186 1.09 0 .5-.32 1-.15 2 .33 1.1077398.5439623 2.316901.8505102 3.55.9-2.29 3.43-1.79 4.6-6.11 4.6z"/><path id="Shape" d="m26.68 35.94c.4334953.1238691.8962721-.0576523 1.1299461-.4432145.2336741-.3855621.1804538-.879809-.1299461-1.2067855-1.6195605-1.617989-3.5385788-2.9052597-5.65-3.79-.314636-.6191813-.3756163-1.3365972-.17-2 .2514751-.4837497.0691057-1.0797862-.41-1.34-.2332561-.127958-.5078865-.1576916-.763124-.0826217-.2552375.0750698-.4700391.248754-.596876.4826217-.3086485.6823798-.419522 1.4377053-.32 2.18-.43-.13-.86-.23-1.27-.32-.6642053-.8133443-1.1727101-1.742213-1.5-2.74-.1767311-.5246705-.7453295-.8067311-1.27-.63-.5246705.1767312-.8067311.7453295-.63 1.27.1994354.5765286.4400554 1.1379754.72 1.68-.977667-.0956311-1.962333-.0956311-2.94 0-.3572656.0428719-.6645208.273086-.8060254.603923-.1415047.3308371-.095761.7120349.12 1.0000001.2157609.2879651.5687598.4389488.9260254.3960769h.53c-1.2054607 2.3827734-.9502511 5.2438087.6579173 7.3756012 1.6081683 2.1317926 4.2891058 3.1629224 6.9113185 2.6581995 2.6222128-.5047229 4.7288353-2.4573612 5.4307642-5.0338007zm-5.68-1.94c0 .5522847-.4477153 1-1 1s-1-.4477153-1-1 .4477153-1 1-1 1 .4477153 1 1zm-1 4.89c-1.8657361-.0075209-3.5720823-1.0532065-4.42576-2.7122008s-.7126594-3.6552883.36576-5.1777992c.8512319.0824338 1.6963.2193816 2.53.41-1.3535616.7937195-1.8668218 2.496415-1.1774139 3.9059669.6894079 1.4095518 2.3485595 2.0497267 3.8060776 1.468555s2.2209635-2.1873346 1.7513363-3.6845219c.7299283.4060825 1.4255622.8709533 2.08 1.39-.3019217 2.4983183-2.413562 4.3829465-4.93 4.4z"/><path id="Shape" d="m46.35 31h.53c.2655689.0338097.5336054-.0402764.7441126-.2056749s.3459054-.4082969.3758874-.6743251c.0338097-.2655689-.0402764-.5336054-.2056749-.7441126s-.4082969-.3459054-.6743251-.3758874c-.977667-.0956311-1.962333-.0956311-2.94 0 .3141383-.5391461.5882105-1.1006598.82-1.68.114325-.3394023.0388967-.7140146-.1978719-.9827241-.2367685-.2687095-.5989065-.3906928-.95-.32s-.6378031.3233218-.7521281.6627241c-.3559265.9896083-.8915785 1.9049628-1.58 2.7-.41.09-.84.19-1.27.32.099522-.7422947-.0113515-1.4976202-.32-2.18-.2633428-.4696575-.8512775-.64648-1.33-.4-.490313.2495756-.6869243.8483464-.44 1.34.2099652.662925.1488418 1.3820236-.17 2-2.1114212.8847403-4.0304395 2.172011-5.65 3.79-.3103999.3269765-.3636202.8212234-.1299461 1.2067855.233674.3855622.6964508.5670836 1.1299461.4432145.7019289 2.5764395 2.8085514 4.5290778 5.4307642 5.0338007 2.6222127.5047229 5.3031502-.5264069 6.9113185-2.6581995 1.6081684-2.1317925 1.863378-4.9928278.6579173-7.3756012zm-5.35 3c0 .5522847-.4477153 1-1 1s-1-.4477153-1-1 .4477153-1 1-1 1 .4477153 1 1zm-1 4.89c-2.5097053-.015773-4.61884-1.8896087-4.93-4.38.6544378-.5190467 1.3500717-.9839175 2.08-1.39-.4696272 1.4971873.2938182 3.1033502 1.7513363 3.6845219s3.1166697-.0590032 3.8060776-1.468555c.6894079-1.4095519.1761477-3.1122474-1.1774139-3.9059669.8332584-.1973471 1.6783309-.340976 2.53-.43 1.0784194 1.5225109 1.2194377 3.5188049.36576 5.1777992s-2.5600239 2.7046799-4.42576 2.7122008z"/><path id="Shape" d="m27.29 41.71c.1877666.1893127.4433625.2957983.71.2957983s.5222334-.1064856.71-.2957983c.3377038-.3752746.7922764-.6254657 1.29-.71.5067802.0746305.970821.3261335 1.31.71.1837887.1823408.4311318.2862966.69.29.4062651.0023626.77358-.2413038.929371-.6165185.1557909-.3752147.0690889-.807391-.219371-1.0934815-.7047838-.761204-1.6747923-1.2229423-2.71-1.29-1.0352077.0670577-2.0052162.528796-2.71 1.29-.1893127.1877666-.2957983.4433625-.2957983.71s.1064856.5222334.2957983.71z"/><path id="Shape" d="m56.87 38.28c2.0468916-3.5889339 3.125508-7.6483912 3.13-11.78 0-24.45-15.49-26.5-30-26.5s-30 2.05-30 26.5c.00449203 4.1316088 1.08310844 8.1910661 3.13 11.78.07271121 1.0031723.33394212 1.9836363.77 2.89-2.31394742 3.5343736-2.50777836 8.0517628-.50508213 11.7713538s5.88063495 6.0446645 10.10508213 6.0586462c2.0519796.0015591 4.0662705-.551248 5.83-1.6 8.06 3.43 13.26 3.44 21.34 0 4.6055909 2.7155576 10.4756376 1.8955228 14.1607144-1.9782261 3.6850767-3.8737489 4.2112342-9.7773972 1.2692856-14.2417739.4395694-.9086009.7009496-1.8930199.77-2.9zm-51.48 1.28-.83-4.56c-.09746908-.5451534.03546662-1.1063178.36713873-1.5498108.33167212-.443493.83238648-.7296092 1.38286127-.7901892l1.37-.15c.28563759 2.8896251.28563759 5.8003749 0 8.69-1.08411706.1746948-2.1063266-.557368-2.29-1.64zm46.93-7.08 1.37.15c.5567669.0597185 1.0629993.3501105 1.3956209.8005753.3326217.4504647.4611653 1.0197408.3543791 1.5694247l-.84 4.58c-.2026555 1.0664046-1.2189526 1.7764812-2.29 1.6-.2953404-2.8926536-.2919894-5.808033.01-8.7zm-22.32-30.48c17.29 0 28 4.1 28 24.5-.0143838 2.1514519-.3514689 4.2885713-1 6.34-.6022595-1.2170893-1.7808691-2.045505-3.13-2.2l-1.42-.15c.31-3.1.55-4.23.49-4.64.28-12.09-10.18-16-22.07-14.62h-1.78c-12.29-1.4-22.7 2.77-22.09 15.26 0 0 .25 1.73.48 4-1.51.16-3 .14-4.2 1.76-.13334676.1862811-.25044395.3836735-.35.59-.62480869-2.0550461-.93828624-4.1920866-.93-6.34 0-20.4 10.71-24.5 28-24.5zm20.87 21.36c-2.73-2.22-8.73-5.36-20.87-5.36s-18.14 3.14-20.87 5.36c1.18-9.11 10.76-11.18 19.79-10.14h2.16c9.06-1.05 18.59 1.04 19.79 10.14zm-45.53 19.29c.67451904.4032607 1.45582438.5916111 2.24.54-.12 3.62.28 7.43 3.38 9.63 1.9074731 1.3185114 3.9133686 2.4886171 6 3.5-8.57 3.37-16.16-6.11-11.62-13.67zm6.78 8.53c-3-2.16-2.66-6.86-2.38-10.65.24118326-2.6211302.24118326-5.2588698 0-7.88-.39-4.5-.74-6.07-.74-6.37 6.25-8.34 35.35-8.48 42 0-.5170198 3.6285656-.8109054 7.2854367-.88 10.95 0 4.57 1.62 11.23-2.22 14-4.57 3.15-12.22 6.77-17.9 6.77s-13.35-3.63-17.88-6.82zm30.88 5.14c2.0909561-1.0070834 4.097438-2.1808754 6-3.51 3.1-2.19 3.51-6 3.39-9.62.7843946.054193 1.5664625-.1343412 2.24-.54 4.59 7.66-3.09 17.02-11.63 13.67z"/></g></g></svg>