<svg height="512" viewBox="0 0 58 58" width="512" xmlns="http://www.w3.org/2000/svg"><g id="024---Super-Girl" fill="none"><path id="Shape" d="m51 25c-.25-.41-4.55-7-22-7s-21.74 6.57-22 7c-.058632-1.342396.05563881-2.6867585.34-4 2.41-11.1 16.8-10.22 20.66-9.77h2c3.89-.45 18.28-1.33 20.68 9.75.2793674 1.320624.3869246 2.6718104.32 4.02z" fill="#ff5364"/><path id="Shape" d="m50.3 31.73c-.2791301 3.0846987-.2590364 6.1891729.06 9.27.24 3.83.16 7.88-2.9 10-4.75 3.34-12.55 7-18.46 7s-13.7-3.65-18.46-7c-4.39-3.1-2.64-10-2.64-14.77-.08014846-3.6415066-.38069831-7.2748204-.9-10.88 0-.12 0-.25 0-.37.25-.41 4.55-7 22-7s21.74 6.57 22 7c0 1.02-.33 1.78-.7 6.75z" fill="#fdd7ad"/><path id="Shape" d="m31.71 39.29c-.7047838-.761204-1.6747923-1.2229423-2.71-1.29-1.0352077.0670577-2.0052162.528796-2.71 1.29-.2884599.2860905-.3751619.7182668-.219371 1.0934815.155791.3752147.5231059.6188811.929371.6165185.265803.0015368.5212812-.1028135.71-.29.3346379-.3791207.7906673-.6301136 1.29-.71.4954698.0828566.9473925.3335325 1.28.71.1911631.1896681.4507427.294221.72.29.4062651.0023626.77358-.2413038.929371-.6165185.1557909-.3752147.0690889-.807391-.219371-1.0934815z" fill="#f09372"/><path id="Shape" d="m55.42 34.16-.5 2.78c-.32 1.77-.31 2.43-1 3.24-.7646509.8661358-1.9587379 1.2161939-3.07.9l-.49-.08c-.3164553-3.0675957-.3365482-6.1585495-.06-9.23 0-.1.08-1.07.11-1.35l2.39.26c.8185994.0928722 1.5629821.5183008 2.0585021 1.1764725.4955201.6581717.6985655 1.491159.5614979 2.3035275z" fill="#f09372"/><path id="Shape" d="m55.42 34.16c.1492982-.8184721-.0479977-1.6621888-.544754-2.3295865s-1.2483573-1.0985351-2.075246-1.1904135l-2.39-.26c.25-2.8.57-5 .57-5 .0859313-1.4681844-.0250543-2.9412653-.33-4.38-2.4-11.1-16.79-10.22-20.65-9.77h-2c-3.86-.45-18.25-1.33-20.65 9.77-.31028685 1.4278808-.42799926 2.8908778-.35 4.35 0 0 .32 2.23.57 5l-2.39.26c-.82688867.0918784-1.57848972.5230158-2.07524599 1.1904135s-.69405224 1.5111144-.54475401 2.3295865l.5 2.78c-1.99945351-3.4706239-3.05449724-7.4046268-3.06-11.41 0-22.5 13-25.5 29-25.5s29 3 29 25.5c-.0063356 4.0173618-1.0684865 7.9624938-3.08 11.44z" fill="#3d324c"/><path id="Shape" d="m7.64 41-.46.13c-.81388366.2307546-1.68736459.1071569-2.40527463-.3403467s-1.21351314-1.1773137-1.36472537-2.0096533l-.32-1.78-.5-2.78c-.16805789-.8259234.01907111-1.6844455.515602-2.3655108.4965309-.6810654 1.25665713-1.1218436 2.094398-1.2144892l2.39-.26c.39107755 3.5283346.40783746 7.0881394.05 10.62z" fill="#f09372"/><path id="Shape" d="m18.24 55.29c-3.2282363 2.0994965-7.3461789 2.2653719-10.73282227.4323303-3.38664342-1.8330416-5.49962368-5.3714423-5.50717773-9.2223303-.00734163-2.2777562.73401954-4.4948126 2.11-6.31.76465085.8661358 1.95873785 1.2161939 3.07.9l.46-.09c-.24 3.83-.16 7.88 2.9 10 2.4226735 1.6743908 5.0012945 3.1110511 7.7 4.29z" fill="#3d324c"/><path id="Shape" d="m56 46.5c-.0075541 3.850888-2.1205343 7.3892887-5.5071777 9.2223303s-7.504586 1.6671662-10.7328223-.4323303c2.6987055-1.1789489 5.2773265-2.6156092 7.7-4.29 3.06-2.16 3.14-6.21 2.9-10l.46.13c1.1112621.3161939 2.3053491-.0338642 3.07-.9 1.3618452 1.8073701 2.1020732 4.007005 2.11 6.27z" fill="#3d324c"/><path id="Shape" d="m37 46.47c-.08 0-.42.6-.46.66-.36.52-.72 1-1.07 1.57-.5248492.9697666-1.1162656 1.9019993-1.77 2.79-1.25 1.43-2.9 1.51-4.7 1.51s-3.51-.13-4.72-1.51c-.6537344-.8880007-1.2451508-1.8202334-1.77-2.79-.35-.53-.71-1.05-1.07-1.57-.05-.06-.38-.66-.46-.66 1.4526746.054006 2.9038186-.1421859 4.29-.58 1.17-.46 2.46-1.38 3.72-.57 1.25-.8 2.55.11 3.7.57 1.3928073.4389227 2.8507099.6351138 4.31.58z" fill="#e64c3c"/><path id="Shape" d="m37 46.47c-.08 0-.42.6-.46.66-.36.52-.72 1-1.07 1.57-.5248492.9697666-1.1162656 1.9019993-1.77 2.79-1.25 1.43-2.9 1.51-4.7 1.51s-3.51-.13-4.72-1.51c-.6537344-.8880007-1.2451508-1.8202334-1.77-2.79-.35-.53-.71-1.05-1.07-1.57-.1323281-.2196585-.2793287-.4301367-.44-.63 3.58 2.17 13.11 1.94 15.94 0z" fill="#c03a2b"/><path id="Shape" d="m25 32.19c-.0684113 2.6468703-1.8637235 4.9359854-4.4180288 5.6332133-2.5543054.6972279-5.2636649-.3622838-6.6673799-2.6073198-1.403715-2.2450361-1.1698917-5.1447809.5754087-7.1358935 3.8533229.2079876 7.5377999 1.6488249 10.51 4.11z" fill="#ecf0f1"/><path id="Shape" d="m17 29.42c-.2560877.0016723-.5030575-.094968-.69-.27-1.0185681-1.0635212-1.7991854-2.3315982-2.29-3.72-.1767311-.5246705.1053295-1.0932689.63-1.27s1.0932689.1053295 1.27.63c.3775256 1.0813169.9808951 2.0698884 1.77 2.9.3005265.2813438.3979309.7181101.2454225 1.1004864-.1525085.3823764-.5237635.6322207-.9354225.6295136z" fill="#5d4c72"/><path id="Shape" d="m20.31 30.37c-.3801569.0026457-.7289345-.2104962-.9-.55-.7658502-1.2684468-.8738003-2.8281406-.29-4.19.2595738-.488772.866228-.6745738 1.355-.415s.6745738.866228.415 1.355c-.2458441.7942262-.1326177 1.6562074.31 2.36.1512535.3086661.1333761.6733823-.0473396.9657762-.1807157.292394-.4989383.4714801-.8426604.4742238z" fill="#5d4c72"/><circle id="Oval" cx="19" cy="32.11" fill="#2c3e50" r="3.15"/><path id="Shape" d="m26 34.11c-.265803.0015368-.5212812-.1028135-.71-.29-3.5283276-3.3595642-8.3109119-5.0735959-13.17-4.72-.3572656.0428719-.7102645-.1081118-.9260254-.396077-.2157609-.2879651-.2615047-.6691629-.12-1 .1415047-.330837.4487598-.5610511.8060254-.603923 5.477254-.4616537 10.886029 1.4713543 14.83 5.3.2884599.2860905.3751619.7182668.219371 1.0934815-.155791.3752147-.5231059.6188811-.929371.6165185z" fill="#5d4c72"/><circle id="Oval" cx="18.99" cy="32.11" fill="#2fa8cc" r="2"/><circle id="Oval" cx="18.99" cy="32.11" fill="#2c3e50" r="1"/><circle id="Oval" cx="18.03" cy="31.7" fill="#fff" r="1"/><path id="Shape" d="m33 32.19c.0684113 2.6468703 1.8637235 4.9359854 4.4180288 5.6332133 2.5543054.6972279 5.2636649-.3622838 6.6673799-2.6073198 1.403715-2.2450361 1.1698917-5.1447809-.5754087-7.1358935-3.8533229.2079876-7.5377999 1.6488249-10.51 4.11z" fill="#ecf0f1"/><path id="Shape" d="m41 29.42c.2560877.0016723.5030575-.094968.69-.27 1.0257663-1.0616297 1.8132872-2.3298452 2.31-3.72.114325-.3394023.0388967-.7140146-.1978719-.9827241-.2367685-.2687095-.5989065-.3906928-.95-.32s-.6378031.3233218-.7521281.6627241c-.3775256 1.0813169-.9808951 2.0698884-1.77 2.9-.2979134.2788423-.3965232.7107232-.2491576 1.0912345.1473656.3805112.5111432.6333172.9191576.6387655z" fill="#5d4c72"/><path id="Shape" d="m37.69 30.37c.3801569.0026457.7289345-.2104962.9-.55.7658502-1.2684468.8738003-2.8281406.29-4.19-.2595738-.488772-.866228-.6745738-1.355-.415-.488772.2595739-.6745738.866228-.415 1.355.2458441.7942262.1326177 1.6562074-.31 2.36-.1512535.3086661-.1333761.6733823.0473396.9657762.1807157.292394.4989383.4714801.8426604.4742238z" fill="#5d4c72"/><circle id="Oval" cx="39" cy="32.11" fill="#2c3e50" r="3.15"/><path id="Shape" d="m32 34.11c.265803.0015368.5212812-.1028135.71-.29 3.5283276-3.3595642 8.3109119-5.0735959 13.17-4.72.5522847.0662742 1.0537258-.3277153 1.12-.88s-.3277153-1.0537258-.88-1.12c-5.477254-.4616537-10.886029 1.4713543-14.83 5.3-.2884599.2860905-.3751619.7182668-.219371 1.0934815.155791.3752147.5231059.6188811.929371.6165185z" fill="#5d4c72"/><circle id="Oval" cx="39.01" cy="32.11" fill="#2fa8cc" r="2"/><circle id="Oval" cx="39.01" cy="32.11" fill="#2c3e50" r="1"/><circle id="Oval" cx="37.97" cy="31.7" fill="#fff" r="1"/></g></svg>