<svg height="512" viewBox="0 0 60 60" width="512" xmlns="http://www.w3.org/2000/svg"><g id="024---Super-Girl"><path id="Shape" d="m38.05 46.47c-1.3531229.0536057-2.7055584-.1222109-4-.52-1-.39-2.47-1.38-4.05-.75-1.6-.64-3.13.37-4.1.75-1.2941943.398927-2.6468252.574769-4 .52-.4132475.0121616-.7764066.277369-.9137714.6673078s-.0206116.8242062.2937714 1.0926922c.07.11.24.4.29.47.6044914.8190497 1.1588389 1.6739471 1.66 2.56 1.59 2.74 2.77 3.74 6.77 3.74 1.61 0 3.81 0 5.44-1.85.4838142-.5829236.9029348-1.216634 1.25-1.89.5020052-.8855409 1.0563205-1.7403886 1.66-2.56 0-.07.21-.36.29-.47.3111956-.2647304.4300501-.6921465.3001906-1.0795241s-.4823128-.6567985-.8901906-.6804759zm-8.05 6.53c-4.31 0-3.8-1.12-6.17-4.61.9598624-.048713 1.907025-.2408421 2.81-.57 1.16-.46 2.09-1.13 2.83-.65.3314032.2154186.7585968.2154186 1.09 0 .5-.32 1-.15 2 .33 1.1077398.5439623 2.316901.8505102 3.55.9-2.29 3.43-1.79 4.6-6.11 4.6z"/><path id="Shape" d="m26.68 35.94c.4334953.1238691.8962721-.0576523 1.1299461-.4432145.2336741-.3855621.1804538-.879809-.1299461-1.2067855-1.6195605-1.617989-3.5385788-2.9052597-5.65-3.79-.314636-.6191813-.3756163-1.3365972-.17-2 .2514751-.4837497.0691057-1.0797862-.41-1.34-.2332561-.127958-.5078865-.1576916-.763124-.0826217-.2552375.0750698-.4700391.248754-.596876.4826217-.3086485.6823798-.419522 1.4377053-.32 2.18-.43-.13-.86-.23-1.27-.32-.6642053-.8133443-1.1727101-1.742213-1.5-2.74-.1767311-.5246705-.7453295-.8067311-1.27-.63-.5246705.1767312-.8067311.7453295-.63 1.27.1994354.5765286.4400554 1.1379754.72 1.68-.977667-.0956311-1.962333-.0956311-2.94 0-.3572656.0428719-.6645208.273086-.8060254.603923-.1415047.3308371-.095761.7120349.12 1.0000001.2157609.2879651.5687598.4389488.9260254.3960769h.53c-1.2054607 2.3827734-.9502511 5.2438087.6579173 7.3756012 1.6081683 2.1317926 4.2891058 3.1629224 6.9113185 2.6581995 2.6222128-.5047229 4.7288353-2.4573612 5.4307642-5.0338007zm-5.68-1.94c0 .5522847-.4477153 1-1 1s-1-.4477153-1-1 .4477153-1 1-1 1 .4477153 1 1zm-1 4.89c-1.8657361-.0075209-3.5720823-1.0532065-4.42576-2.7122008s-.7126594-3.6552883.36576-5.1777992c.8512319.0824338 1.6963.2193816 2.53.41-1.3535616.7937195-1.8668218 2.496415-1.1774139 3.9059669.6894079 1.4095518 2.3485595 2.0497267 3.8060776 1.468555s2.2209635-2.1873346 1.7513363-3.6845219c.7299283.4060825 1.4255622.8709533 2.08 1.39-.3019217 2.4983183-2.413562 4.3829465-4.93 4.4z"/><path id="Shape" d="m46.35 31h.53c.2655689.0338097.5336054-.0402764.7441126-.2056749s.3459054-.4082969.3758874-.6743251c.0338097-.2655689-.0402764-.5336054-.2056749-.7441126s-.4082969-.3459054-.6743251-.3758874c-.977667-.0956311-1.962333-.0956311-2.94 0 .3141383-.5391461.5882105-1.1006598.82-1.68.114325-.3394023.0388967-.7140146-.1978719-.9827241-.2367685-.2687095-.5989065-.3906928-.95-.32s-.6378031.3233218-.7521281.6627241c-.3559265.9896083-.8915785 1.9049628-1.58 2.7-.41.09-.84.19-1.27.32.099522-.7422947-.0113515-1.4976202-.32-2.18-.2633428-.4696575-.8512775-.64648-1.33-.4-.490313.2495756-.6869243.8483464-.44 1.34.2099652.662925.1488418 1.3820236-.17 2-2.1114212.8847403-4.0304395 2.172011-5.65 3.79-.3103999.3269765-.3636202.8212234-.1299461 1.2067855.233674.3855622.6964508.5670836 1.1299461.4432145.7019289 2.5764395 2.8085514 4.5290778 5.4307642 5.0338007 2.6222127.5047229 5.3031502-.5264069 6.9113185-2.6581995 1.6081684-2.1317925 1.863378-4.9928278.6579173-7.3756012zm-5.35 3c0 .5522847-.4477153 1-1 1s-1-.4477153-1-1 .4477153-1 1-1 1 .4477153 1 1zm-1 4.89c-2.5097053-.015773-4.61884-1.8896087-4.93-4.38.6544378-.5190467 1.3500717-.9839175 2.08-1.39-.4696272 1.4971873.2938182 3.1033502 1.7513363 3.6845219s3.1166697-.0590032 3.8060776-1.468555c.6894079-1.4095519.1761477-3.1122474-1.1774139-3.9059669.8332584-.1973471 1.6783309-.340976 2.53-.43 1.0784194 1.5225109 1.2194377 3.5188049.36576 5.1777992s-2.5600239 2.7046799-4.42576 2.7122008z"/><path id="Shape" d="m27.29 41.71c.1877666.1893127.4433625.2957983.71.2957983s.5222334-.1064856.71-.2957983c.3377038-.3752746.7922764-.6254657 1.29-.71.5067802.0746305.970821.3261335 1.31.71.1837887.1823408.4311318.2862966.69.29.4062651.0023626.77358-.2413038.929371-.6165185.1557909-.3752147.0690889-.807391-.219371-1.0934815-.7047838-.761204-1.6747923-1.2229423-2.71-1.29-1.0352077.0670577-2.0052162.528796-2.71 1.29-.1893127.1877666-.2957983.4433625-.2957983.71s.1064856.5222334.2957983.71z"/><path id="Shape" d="m56.87 38.28c2.0468916-3.5889339 3.125508-7.6483912 3.13-11.78 0-24.45-15.49-26.5-30-26.5s-30 2.05-30 26.5c.00449203 4.1316088 1.08310844 8.1910661 3.13 11.78.07271121 1.0031723.33394212 1.9836363.77 2.89-2.31394742 3.5343736-2.50777836 8.0517628-.50508213 11.7713538s5.88063495 6.0446645 10.10508213 6.0586462c2.0519796.0015591 4.0662705-.551248 5.83-1.6 8.06 3.43 13.26 3.44 21.34 0 4.6055909 2.7155576 10.4756376 1.8955228 14.1607144-1.9782261 3.6850767-3.8737489 4.2112342-9.7773972 1.2692856-14.2417739.4395694-.9086009.7009496-1.8930199.77-2.9zm-51.48 1.28-.83-4.56c-.09746908-.5451534.03546662-1.1063178.36713873-1.5498108.33167212-.443493.83238648-.7296092 1.38286127-.7901892l1.37-.15c.28563759 2.8896251.28563759 5.8003749 0 8.69-1.08411706.1746948-2.1063266-.557368-2.29-1.64zm46.93-7.08 1.37.15c.5567669.0597185 1.0629993.3501105 1.3956209.8005753.3326217.4504647.4611653 1.0197408.3543791 1.5694247l-.84 4.58c-.2026555 1.0664046-1.2189526 1.7764812-2.29 1.6-.2953404-2.8926536-.2919894-5.808033.01-8.7zm-22.32-30.48c17.29 0 28 4.1 28 24.5-.0143838 2.1514519-.3514689 4.2885713-1 6.34-.6022595-1.2170893-1.7808691-2.045505-3.13-2.2l-1.42-.15c.31-3.1.55-4.23.49-4.64.28-12.09-10.18-16-22.07-14.62h-1.78c-12.29-1.4-22.7 2.77-22.09 15.26 0 0 .25 1.73.48 4-1.51.16-3 .14-4.2 1.76-.13334676.1862811-.25044395.3836735-.35.59-.62480869-2.0550461-.93828624-4.1920866-.93-6.34 0-20.4 10.71-24.5 28-24.5zm20.87 21.36c-2.73-2.22-8.73-5.36-20.87-5.36s-18.14 3.14-20.87 5.36c1.18-9.11 10.76-11.18 19.79-10.14h2.16c9.06-1.05 18.59 1.04 19.79 10.14zm-45.53 19.29c.67451904.4032607 1.45582438.5916111 2.24.54-.12 3.62.28 7.43 3.38 9.63 1.9074731 1.3185114 3.9133686 2.4886171 6 3.5-8.57 3.37-16.16-6.11-11.62-13.67zm6.78 8.53c-3-2.16-2.66-6.86-2.38-10.65.24118326-2.6211302.24118326-5.2588698 0-7.88-.39-4.5-.74-6.07-.74-6.37 6.25-8.34 35.35-8.48 42 0-.5170198 3.6285656-.8109054 7.2854367-.88 10.95 0 4.57 1.62 11.23-2.22 14-4.57 3.15-12.22 6.77-17.9 6.77s-13.35-3.63-17.88-6.82zm30.88 5.14c2.0909561-1.0070834 4.097438-2.1808754 6-3.51 3.1-2.19 3.51-6 3.39-9.62.7843946.054193 1.5664625-.1343412 2.24-.54 4.59 7.66-3.09 17.02-11.63 13.67z"/></g></svg>